{
  "source": "C:\\Users\\Peter\\Desktop\\stuff\\MIUN\\quantitative_research\\video_compression\\videos\\BVI-HD\\BVI-HD_CDVL_videos\\ORIG\\ParkPlay_1920x1080_50fps.mp4",
  "output": "C:\\Users\\Peter\\Desktop\\stuff\\MIUN\\quantitative_research\\video_compression\\compressed_videos\\BVI-HD\\av1\\3\\ParkPlay_1920x1080_50fps_av1.mkv",
  "codec": "av1",
  "ok": "Input #0, mov,mp4,m4a,3gp,3g2,mj2, from 'C:\\Users\\Peter\\Desktop\\stuff\\MIUN\\quantitative_research\\video_compression\\videos\\BVI-HD\\BVI-HD_CDVL_videos\\ORIG\\ParkPlay_1920x1080_50fps.mp4':\n  Metadata:\n    major_brand     : isom\n    minor_version   : 512\n    compatible_brands: isomiso2avc1mp41\n    encoder         : Lavf54.28.101\n  Duration: 00:00:05.00, start: 0.000000, bitrate: 620563 kb/s\n  Stream #0:0[0x1](und): Video: h264 (High 4:4:4 Predictive) (avc1 / 0x31637661), yuv420p(progressive), 1920x1080, 620558 kb/s, 50 fps, 50 tbr, 50 tbn (default)\n    Metadata:\n      handler_name    : VideoHandler\n      vendor_id       : [0][0][0][0]\n[out#0/matroska @ 0000022a0cb2f0c0] Codec AVOption b:a (set bitrate (in bits/s)) has not been used for any stream. The most likely reason is either wrong type (e.g. a video option with no video streams) or that it is a private option of some decoder which was not actually used for any stream.\nStream mapping:\n  Stream #0:0 -> #0:0 (h264 (native) -> av1 (libsvtav1))\nPress [q] to stop, [?] for help\nSvt[info]: -------------------------------------------\nSvt[info]: SVT [version]:\tSVT-AV1 Encoder Lib v3.1.0-19-g6ecfe8ec\nSvt[info]: SVT [build]  :\tGCC 15.2.0\t 64 bit\nSvt[info]: LIB Build date: Aug 17 2025 11:37:13\nSvt[info]: -------------------------------------------\nSvt[info]: Level of Parallelism: 5\nSvt[info]: Number of PPCS 93\nSvt[info]: [asm level on system : up to avx2]\nSvt[info]: [asm level selected : up to avx2]\nSvt[info]: -------------------------------------------\nSvt[info]: SVT [config]: main profile\ttier (auto)\tlevel (auto)\nSvt[info]: SVT [config]: width / height / fps numerator / fps denominator \t\t: 1920 / 1080 / 50 / 1\nSvt[info]: SVT [config]: bit-depth / color format \t\t\t\t\t: 8 / YUV420\nSvt[info]: SVT [config]: preset / tune / pred struct \t\t\t\t\t: 4 / PSNR / random access\nSvt[info]: SVT [config]: gop size / mini-gop size / key-frame type \t\t\t: 321 / 16 / key frame\nSvt[info]: SVT [config]: BRC mode / target bitrate (kbps)\t\t\t\t: VBR / 3000 \nSvt[info]: SVT [config]: AQ mode / Variance Boost \t\t\t\t\t: 2 / 0\nSvt[info]: SVT [config]: sharpness / luminance-based QP bias \t\t\t\t: 0 / 0\nSvt[info]: SVT [config]: QP scale compress strength \t\t\t\t\t: 0\nSvt[info]: -------------------------------------------\nOutput #0, matroska, to 'C:\\Users\\Peter\\Desktop\\stuff\\MIUN\\quantitative_research\\video_compression\\compressed_videos\\BVI-HD\\av1\\3\\ParkPlay_1920x1080_50fps_av1.mkv':\n  Metadata:\n    major_brand     : isom\n    minor_version   : 512\n    compatible_brands: isomiso2avc1mp41\n    encoder         : Lavf62.3.100\n  Stream #0:0(und): Video: av1 (AV01 / 0x31305641), yuv420p(tv, progressive), 1920x1080, q=2-31, 3000 kb/s, 50 fps, 1k tbn (default)\n    Metadata:\n      encoder         : Lavc62.11.100 libsvtav1\n      handler_name    : VideoHandler\n      vendor_id       : [0][0][0][0]\n    Side data:\n      cpb: bitrate max/min/avg: 0/0/3000000 buffer size: 3000000 vbv_delay: N/A\nframe=    0 fps=0.0 q=0.0 size=       0KiB time=N/A bitrate=N/A speed=N/A elapsed=0:00:01.03    \nframe=    0 fps=0.0 q=0.0 size=       0KiB time=N/A bitrate=N/A speed=N/A elapsed=0:00:01.69    \nframe=    0 fps=0.0 q=0.0 size=       0KiB time=N/A bitrate=N/A speed=N/A elapsed=0:00:02.23    \nframe=    0 fps=0.0 q=0.0 size=       0KiB time=N/A bitrate=N/A speed=N/A elapsed=0:00:02.79    \nframe=    0 fps=0.0 q=0.0 size=       0KiB time=N/A bitrate=N/A speed=N/A elapsed=0:00:03.30    \nframe=    0 fps=0.0 q=0.0 size=       0KiB time=N/A bitrate=N/A speed=N/A elapsed=0:00:03.83    \nframe=    1 fps=0.2 q=30.0 size=       1KiB time=00:00:00.00 bitrate=N/A speed=   0x elapsed=0:00:04.35    \nframe=    1 fps=0.2 q=30.0 size=       1KiB time=00:00:00.00 bitrate=N/A speed=   0x elapsed=0:00:04.91    \nframe=    1 fps=0.2 q=30.0 size=       1KiB time=00:00:00.00 bitrate=N/A speed=   0x elapsed=0:00:05.43    \nframe=    1 fps=0.2 q=30.0 size=       1KiB time=00:00:00.00 bitrate=N/A speed=   0x elapsed=0:00:05.97    \nframe=    4 fps=0.6 q=50.0 size=       1KiB time=00:00:00.06 bitrate=  95.1kbits/s speed=0.00922x elapsed=0:00:06.50    \nframe=    7 fps=1.0 q=47.0 size=       1KiB time=00:00:00.12 bitrate=  47.5kbits/s speed=0.0171x elapsed=0:00:07.02    \nframe=    8 fps=1.1 q=47.0 size=       1KiB time=00:00:00.14 bitrate=  40.7kbits/s speed=0.0185x elapsed=0:00:07.55    \nframe=   12 fps=1.5 q=47.0 size=       1KiB time=00:00:00.22 bitrate=  25.9kbits/s speed=0.0271x elapsed=0:00:08.11    \nframe=   14 fps=1.6 q=48.0 size=       1KiB time=00:00:00.26 bitrate=  21.9kbits/s speed=0.0301x elapsed=0:00:08.62    \nframe=   18 fps=2.0 q=50.0 size=       1KiB time=00:00:00.34 bitrate=  16.8kbits/s speed=0.0371x elapsed=0:00:09.15    \nframe=   20 fps=2.1 q=50.0 size=       1KiB time=00:00:00.38 bitrate=  15.0kbits/s speed=0.0393x elapsed=0:00:09.67    \nframe=   22 fps=2.2 q=48.0 size=       1KiB time=00:00:00.42 bitrate=  13.6kbits/s speed=0.0412x elapsed=0:00:10.20    \nframe=   24 fps=2.2 q=48.0 size=       1KiB time=00:00:00.46 bitrate=  12.4kbits/s speed=0.0428x elapsed=0:00:10.74    \nframe=   28 fps=2.5 q=50.0 size=       1KiB time=00:00:00.52 bitrate=  11.0kbits/s speed=0.0461x elapsed=0:00:11.27    \nframe=   31 fps=2.6 q=47.0 size=       1KiB time=00:00:00.60 bitrate=   9.5kbits/s speed=0.0507x elapsed=0:00:11.84    \nframe=   35 fps=2.8 q=49.0 size=       1KiB time=00:00:00.68 bitrate=   8.4kbits/s speed=0.055x elapsed=0:00:12.35    \nframe=   37 fps=2.9 q=47.0 size=       1KiB time=00:00:00.72 bitrate=   7.9kbits/s speed=0.0559x elapsed=0:00:12.88    \nframe=   39 fps=2.9 q=44.0 size=       1KiB time=00:00:00.76 bitrate=   7.5kbits/s speed=0.0567x elapsed=0:00:13.40    \nframe=   40 fps=2.9 q=47.0 size=       1KiB time=00:00:00.78 bitrate=   7.3kbits/s speed=0.0559x elapsed=0:00:13.94    \nframe=   43 fps=3.0 q=47.0 size=       1KiB time=00:00:00.84 bitrate=   6.8kbits/s speed=0.058x elapsed=0:00:14.47    \nframe=   47 fps=3.1 q=47.0 size=       1KiB time=00:00:00.92 bitrate=   6.2kbits/s speed=0.0614x elapsed=0:00:14.98    \nframe=   50 fps=3.2 q=51.0 size=       1KiB time=00:00:00.98 bitrate=   5.8kbits/s speed=0.0631x elapsed=0:00:15.53    \nframe=   52 fps=3.2 q=51.0 size=       1KiB time=00:00:01.02 bitrate=   5.6kbits/s speed=0.0635x elapsed=0:00:16.06    \nframe=   54 fps=3.3 q=51.0 size=       1KiB time=00:00:01.06 bitrate=   5.4kbits/s speed=0.064x elapsed=0:00:16.56    \nframe=   55 fps=3.2 q=45.0 size=       1KiB time=00:00:01.08 bitrate=   5.3kbits/s speed=0.0632x elapsed=0:00:17.08    \nframe=   59 fps=3.3 q=48.0 size=       1KiB time=00:00:01.16 bitrate=   4.9kbits/s speed=0.0658x elapsed=0:00:17.62    \nframe=   63 fps=3.5 q=48.0 size=       1KiB time=00:00:01.24 bitrate=   4.6kbits/s speed=0.0682x elapsed=0:00:18.17    \nframe=   67 fps=3.6 q=50.0 size=       1KiB time=00:00:01.32 bitrate=   4.3kbits/s speed=0.0705x elapsed=0:00:18.71    \nframe=   69 fps=3.6 q=48.0 size=       1KiB time=00:00:01.36 bitrate=   4.2kbits/s speed=0.0708x elapsed=0:00:19.22    \nframe=   71 fps=3.6 q=47.0 size=       1KiB time=00:00:01.40 bitrate=   4.1kbits/s speed=0.0709x elapsed=0:00:19.74    \nframe=   75 fps=3.7 q=49.0 size=       1KiB time=00:00:01.48 bitrate=   3.9kbits/s speed=0.073x elapsed=0:00:20.27    \nframe=   79 fps=3.8 q=50.0 size=       1KiB time=00:00:01.56 bitrate=   3.7kbits/s speed=0.075x elapsed=0:00:20.80    \nframe=   82 fps=3.8 q=54.0 size=       1KiB time=00:00:01.62 bitrate=   3.5kbits/s speed=0.0759x elapsed=0:00:21.35    \nframe=   86 fps=3.9 q=54.0 size=       1KiB time=00:00:01.70 bitrate=   3.4kbits/s speed=0.0777x elapsed=0:00:21.87    \nframe=   88 fps=3.9 q=54.0 size=       1KiB time=00:00:01.74 bitrate=   3.3kbits/s speed=0.0776x elapsed=0:00:22.41    \nframe=   93 fps=4.1 q=48.0 size=       1KiB time=00:00:01.84 bitrate=   3.1kbits/s speed=0.0802x elapsed=0:00:22.93    \nframe=   96 fps=4.1 q=55.0 size=       1KiB time=00:00:01.90 bitrate=   3.0kbits/s speed=0.0809x elapsed=0:00:23.49    \nframe=  101 fps=4.2 q=51.0 size=       1KiB time=00:00:02.00 bitrate=   2.9kbits/s speed=0.0832x elapsed=0:00:24.02    \nframe=  103 fps=4.2 q=53.0 size=       1KiB time=00:00:02.04 bitrate=   2.8kbits/s speed=0.0831x elapsed=0:00:24.54    \nframe=  107 fps=4.3 q=52.0 size=       1KiB time=00:00:02.12 bitrate=   2.7kbits/s speed=0.0846x elapsed=0:00:25.06    \nframe=  111 fps=4.3 q=51.0 size=       1KiB time=00:00:02.20 bitrate=   2.6kbits/s speed=0.086x elapsed=0:00:25.58    \nframe=  114 fps=4.4 q=54.0 size=       1KiB time=00:00:02.26 bitrate=   2.5kbits/s speed=0.0865x elapsed=0:00:26.12    \nframe=  119 fps=4.5 q=53.0 size=       1KiB time=00:00:02.36 bitrate=   2.4kbits/s speed=0.0885x elapsed=0:00:26.66    \nframe=  122 fps=4.5 q=54.0 size=       1KiB time=00:00:02.42 bitrate=   2.4kbits/s speed=0.0889x elapsed=0:00:27.21    \nframe=  124 fps=4.5 q=54.0 size=       1KiB time=00:00:02.46 bitrate=   2.3kbits/s speed=0.0886x elapsed=0:00:27.76    \nframe=  127 fps=4.5 q=51.0 size=       1KiB time=00:00:02.52 bitrate=   2.3kbits/s speed=0.0889x elapsed=0:00:28.35    \nframe=  130 fps=4.5 q=54.0 size=       1KiB time=00:00:02.58 bitrate=   2.2kbits/s speed=0.0892x elapsed=0:00:28.93    \nframe=  134 fps=4.5 q=54.0 size=       1KiB time=00:00:02.66 bitrate=   2.1kbits/s speed=0.09x elapsed=0:00:29.54    \nframe=  135 fps=4.5 q=53.0 size=       1KiB time=00:00:02.68 bitrate=   2.1kbits/s speed=0.0888x elapsed=0:00:30.17    \nframe=  139 fps=4.5 q=52.0 size=       1KiB time=00:00:02.74 bitrate=   2.1kbits/s speed=0.0889x elapsed=0:00:30.81    \nframe=  140 fps=4.5 q=54.0 size=       1KiB time=00:00:02.78 bitrate=   2.1kbits/s speed=0.0884x elapsed=0:00:31.44    \nframe=  143 fps=4.5 q=52.0 size=       1KiB time=00:00:02.84 bitrate=   2.0kbits/s speed=0.0885x elapsed=0:00:32.09    \nframe=  145 fps=4.4 q=38.0 size=       1KiB time=00:00:02.86 bitrate=   2.0kbits/s speed=0.0873x elapsed=0:00:32.75    \nframe=  147 fps=4.4 q=54.0 size=       1KiB time=00:00:02.92 bitrate=   2.0kbits/s speed=0.0874x elapsed=0:00:33.39    \nframe=  150 fps=4.4 q=55.0 size=       1KiB time=00:00:02.98 bitrate=   1.9kbits/s speed=0.0876x elapsed=0:00:34.00    \nframe=  152 fps=4.4 q=55.0 size=       1KiB time=00:00:03.02 bitrate=   1.9kbits/s speed=0.0872x elapsed=0:00:34.63    \nframe=  157 fps=4.5 q=52.0 size=       1KiB time=00:00:03.12 bitrate=   1.8kbits/s speed=0.0885x elapsed=0:00:35.24    \nframe=  161 fps=4.5 q=38.0 size=       1KiB time=00:00:03.20 bitrate=   1.8kbits/s speed=0.0893x elapsed=0:00:35.83    \nframe=  165 fps=4.5 q=51.0 size=       1KiB time=00:00:03.28 bitrate=   1.7kbits/s speed=0.09x elapsed=0:00:36.44    \nframe=  169 fps=4.6 q=47.0 size=       1KiB time=00:00:03.36 bitrate=   1.7kbits/s speed=0.0907x elapsed=0:00:37.03    \nframe=  169 fps=4.5 q=47.0 size=       1KiB time=00:00:03.36 bitrate=   1.7kbits/s speed=0.0895x elapsed=0:00:37.55    \nframe=  173 fps=4.5 q=51.0 size=       1KiB time=00:00:03.44 bitrate=   1.7kbits/s speed=0.0903x elapsed=0:00:38.07    \nframe=  177 fps=4.6 q=38.0 size=       1KiB time=00:00:03.52 bitrate=   1.6kbits/s speed=0.0911x elapsed=0:00:38.63    \nframe=  181 fps=4.6 q=50.0 size=       1KiB time=00:00:03.60 bitrate=   1.6kbits/s speed=0.0919x elapsed=0:00:39.18    \nframe=  185 fps=4.7 q=47.0 size=       1KiB time=00:00:03.68 bitrate=   1.6kbits/s speed=0.0926x elapsed=0:00:39.75    \nframe=  189 fps=4.7 q=50.0 size=       1KiB time=00:00:03.76 bitrate=   1.5kbits/s speed=0.0932x elapsed=0:00:40.32    \nframe=  193 fps=4.7 q=38.0 size=       1KiB time=00:00:03.84 bitrate=   1.5kbits/s speed=0.0939x elapsed=0:00:40.89    \nframe=  199 fps=4.8 q=52.0 size=       1KiB time=00:00:03.96 bitrate=   1.4kbits/s speed=0.0956x elapsed=0:00:41.43    \nframe=  201 fps=4.8 q=46.0 size=       1KiB time=00:00:04.00 bitrate=   1.4kbits/s speed=0.0954x elapsed=0:00:41.94    \nframe=  207 fps=4.9 q=48.0 size=       1KiB time=00:00:04.12 bitrate=   1.4kbits/s speed=0.097x elapsed=0:00:42.46    \nframe=  213 fps=5.0 q=50.0 size=       1KiB time=00:00:04.24 bitrate=   1.3kbits/s speed=0.0986x elapsed=0:00:43.00    \nframe=  217 fps=5.0 q=46.0 size=       1KiB time=00:00:04.32 bitrate=   1.3kbits/s speed=0.0992x elapsed=0:00:43.54    \nframe=  219 fps=5.0 q=52.0 size=       1KiB time=00:00:04.36 bitrate=   1.3kbits/s speed=0.0989x elapsed=0:00:44.06    \nframe=  225 fps=5.0 q=38.0 size=       1KiB time=00:00:04.48 bitrate=   1.3kbits/s speed= 0.1x elapsed=0:00:44.60    \nframe=  231 fps=5.1 q=54.0 size=       1KiB time=00:00:04.60 bitrate=   1.2kbits/s speed=0.102x elapsed=0:00:45.12    \nframe=  233 fps=5.1 q=47.0 size=       1KiB time=00:00:04.64 bitrate=   1.2kbits/s speed=0.102x elapsed=0:00:45.65    \nframe=  245 fps=5.3 q=48.0 size=       1KiB time=00:00:04.88 bitrate=   1.2kbits/s speed=0.106x elapsed=0:00:46.18    \n[out#0/matroska @ 0000022a0cb2f0c0] video:1921KiB audio:0KiB subtitle:0KiB other streams:0KiB global headers:0KiB muxing overhead: 0.096824%\nframe=  250 fps=5.4 q=54.0 Lsize=    1923KiB time=00:00:04.98 bitrate=3163.7kbits/s speed=0.107x elapsed=0:00:46.33    \n",
  "seconds": 46.815030097961426,
  "probe_out": {}
}